M48
INCH
T105C0.014
T104C0.043
T103C0.038
%
T105
X002800Y004700
X002800Y004100
X002700Y003300
X003300Y006600
X006787Y002887
X008000Y002600
X008500Y002900
X009800Y002850
X006400Y003200
X006600Y001300
X007000Y003800
X010750Y004150
X010300Y006500
X009300Y005700
X005200Y008100
X005200Y006500
X004800Y006700
X005200Y006900
X005200Y007300
X005200Y007700
X010800Y008500
X010800Y009000
X010300Y007200
X009200Y006600
X007400Y007700
X007800Y008000
X007300Y006700
X009300Y008600
X008800Y008458
X009900Y008900
X004800Y008600
T103
X002750Y009800
X003750Y009800
X004750Y009800
X002750Y010800
X003750Y010800
X004750Y010800
X005750Y010800
X006750Y010800
X007750Y010800
X005750Y009800
X006750Y009800
X007750Y009800
X007250Y008800
X000500Y004300
X001500Y004300
X000500Y003300
X001500Y003300
X000500Y006300
X001500Y006300
X000500Y005300
X001500Y005300
X000500Y002300
X001500Y002300
X003500Y000800
X002500Y000800
T104
X009250Y010550
X010250Y010550
X011250Y010550
M30
