G04 start of page 8 for group -4062 idx -4062 *
G04 Title: (unknown), soldermask *
G04 Creator: pcb 20110918 *
G04 CreationDate: Fri 07 Mar 2014 04:06:25 AM GMT UTC *
G04 For: julien *
G04 Format: Gerber/RS-274X *
G04 PCB-Dimensions: 120000 113000 *
G04 PCB-Coordinate-Origin: lower left *
%MOIN*%
%FSLAX25Y25*%
%LNBOTTOMMASK*%
%ADD122C,0.0960*%
%ADD121C,0.0710*%
%ADD120C,0.0660*%
%ADD119C,0.0001*%
G54D119*G36*
X24200Y101300D02*Y94700D01*
X30800D01*
Y101300D01*
X24200D01*
G37*
G54D120*X37500Y98000D03*
X47500D03*
X27500Y108000D03*
X37500D03*
X47500D03*
X57500D03*
X67500D03*
X77500D03*
X57500Y98000D03*
X67500D03*
X77500D03*
G54D119*G36*
X69200Y91300D02*Y84700D01*
X75800D01*
Y91300D01*
X69200D01*
G37*
G36*
X88950Y109050D02*Y101950D01*
X96050D01*
Y109050D01*
X88950D01*
G37*
G54D121*X102500Y105500D03*
X112500D03*
G54D120*X5000Y43000D03*
X15000D03*
X5000Y33000D03*
X15000D03*
G54D119*G36*
X1700Y66300D02*Y59700D01*
X8300D01*
Y66300D01*
X1700D01*
G37*
G54D120*X15000Y63000D03*
X5000Y53000D03*
X15000D03*
X5000Y23000D03*
X15000D03*
G54D119*G36*
X31700Y11300D02*Y4700D01*
X38300D01*
Y11300D01*
X31700D01*
G37*
G54D120*X25000Y8000D03*
G54D122*X10827Y102173D03*
X89567Y9654D03*
M02*
