G04 start of page 9 for group -4079 idx -4079 *
G04 Title: (unknown), topsilk *
G04 Creator: pcb 20110918 *
G04 CreationDate: Fri 07 Mar 2014 04:06:25 AM GMT UTC *
G04 For: julien *
G04 Format: Gerber/RS-274X *
G04 PCB-Dimensions: 120000 113000 *
G04 PCB-Coordinate-Origin: lower left *
%MOIN*%
%FSLAX25Y25*%
%LNTOPSILK*%
%ADD124C,0.0100*%
%ADD123C,0.0080*%
G54D123*X20000Y89560D02*Y87400D01*
Y89560D02*X20504Y90280D01*
X21296D01*
X21800Y89560D01*
Y87400D01*
X20000Y88840D02*X21800D01*
X23024Y88480D02*Y87400D01*
Y88480D02*X23384Y88840D01*
X24104D01*
X22664D02*X23024Y88480D01*
X26408Y90280D02*Y87400D01*
X26048D02*X26408Y87760D01*
X25328Y87400D02*X26048D01*
X24968Y87760D02*X25328Y87400D01*
X24968Y88480D02*Y87760D01*
Y88480D02*X25328Y88840D01*
X26048D01*
X26408Y88480D01*
X27272Y88840D02*Y87760D01*
X27632Y87400D01*
X28352D01*
X28712Y87760D01*
Y88840D02*Y87760D01*
X29576Y89560D02*Y89488D01*
Y88480D02*Y87400D01*
X30656Y88480D02*Y87400D01*
Y88480D02*X31016Y88840D01*
X31376D01*
X31736Y88480D01*
Y87400D01*
X30296Y88840D02*X30656Y88480D01*
X32600D02*Y87760D01*
Y88480D02*X32960Y88840D01*
X33680D01*
X34040Y88480D01*
Y87760D01*
X33680Y87400D02*X34040Y87760D01*
X32960Y87400D02*X33680D01*
X32600Y87760D02*X32960Y87400D01*
X34904Y90280D02*X36344D01*
X36704Y89920D01*
Y89200D01*
X36344Y88840D02*X36704Y89200D01*
X35264Y88840D02*X36344D01*
X35264Y90280D02*Y87400D01*
X35840Y88840D02*X36704Y87400D01*
X37568Y90280D02*Y87400D01*
Y90280D02*X39008D01*
X37568Y88984D02*X38648D01*
X39872Y87400D02*X41312D01*
X42536Y88480D02*Y87400D01*
Y88480D02*X42896Y88840D01*
X43616D01*
X42176D02*X42536Y88480D01*
X44480Y89920D02*X44840Y90280D01*
X45560D01*
X45920Y89920D01*
X45560Y87400D02*X45920Y87760D01*
X44840Y87400D02*X45560D01*
X44480Y87760D02*X44840Y87400D01*
Y88984D02*X45560D01*
X45920Y89920D02*Y89344D01*
Y88624D02*Y87760D01*
Y88624D02*X45560Y88984D01*
X45920Y89344D02*X45560Y88984D01*
G54D124*X0Y68000D02*Y18000D01*
X20000D01*
Y68000D01*
X0D01*
Y58000D02*X10000D01*
Y68000D01*
X5000Y89000D02*Y75100D01*
X17800D01*
Y89000D01*
X5000D01*
X100500Y7250D02*X119500D01*
Y38250D02*Y7250D01*
X100500Y38250D02*X119500D01*
X100500Y20250D02*Y7250D01*
Y38250D02*Y25250D01*
Y20250D02*G75*G03X100500Y25250I0J2500D01*G01*
G54D123*X92755Y34850D02*Y34064D01*
X87245Y34850D02*Y34064D01*
X92755Y47350D02*Y46564D01*
X87245Y47350D02*Y46564D01*
X49521Y53879D02*X73379D01*
Y27121D01*
X46621D02*X73379D01*
X46621Y50979D02*Y27121D01*
Y50979D02*X49521Y53879D01*
X48521Y50979D02*G75*G03X48521Y50979I1000J0D01*G01*
G54D124*X40000Y13000D02*Y3000D01*
X20000Y13000D02*X40000D01*
X20000D02*Y3000D01*
X40000D01*
X30000Y13000D02*X40000D01*
X30000D02*Y3000D01*
X54900Y9775D02*Y6225D01*
G54D123*X54700Y9000D02*X54100Y10375D01*
X43808D02*X54100D01*
X43808D02*Y5625D01*
X54100D01*
X54700Y7000D02*X54100Y5625D01*
X63543Y11740D02*X68267D01*
X63543Y4260D02*X68267D01*
X56805Y11740D02*Y4260D01*
G54D124*X29729Y82484D02*Y69068D01*
X42356D01*
Y82484D02*Y69068D01*
X29729Y82484D02*X33542D01*
X38542D02*X42356D01*
X22500Y93000D02*X82500D01*
Y113000D02*Y93000D01*
X22500Y113000D02*X82500D01*
X22500D02*Y93000D01*
X32500Y103000D02*Y93000D01*
X22500Y103000D02*X32500D01*
X94856Y82484D02*Y69068D01*
X82228Y82484D02*X94856D01*
X82228D02*Y69068D01*
X91042D02*X94856D01*
X82228D02*X86042D01*
X67500Y93000D02*Y83000D01*
X77500D01*
Y93000D01*
X67500D01*
Y83000D02*X77500D01*
Y93000D01*
G54D123*X110650Y98255D02*X111436D01*
X110650Y92745D02*X111436D01*
X95650D02*X96436D01*
X95650Y98255D02*X96436D01*
G54D124*X87500Y100500D02*X117500D01*
Y110500D02*Y100500D01*
X87500Y110500D02*X117500D01*
X87500D02*Y100500D01*
X97500Y110500D02*Y100500D01*
X87500Y110500D02*X97500D01*
X106100Y60800D02*Y46900D01*
X118900D01*
Y60800D01*
X106100D01*
G54D123*X111064Y77745D02*X111850D01*
X111064Y83255D02*X111850D01*
G54D124*X105600Y65800D02*X117500D01*
Y75200D02*Y65800D01*
X105600Y75200D02*X117500D01*
X105600D02*Y65800D01*
G54D123*X7500Y49800D02*Y48500D01*
X8200Y50500D02*X7500Y49800D01*
X8200Y50500D02*X10800D01*
X11500Y49800D01*
Y48500D01*
X8000Y47300D02*X11000D01*
X11500Y46800D01*
Y45800D01*
X11000Y45300D01*
X8000D02*X11000D01*
X7500Y45800D02*X8000Y45300D01*
X7500Y46800D02*Y45800D01*
X8000Y47300D02*X7500Y46800D01*
Y44100D02*X11500D01*
X7500Y41600D01*
X11500D01*
X7500Y40400D02*X11500D01*
X7500Y37900D01*
X11500D01*
X11000Y36700D02*X11500Y36200D01*
Y34700D01*
X11000Y34200D01*
X10000D02*X11000D01*
X7500Y36700D02*X10000Y34200D01*
X7500Y36700D02*Y34200D01*
X11500Y74500D02*X14000D01*
X11500Y70500D02*X14000Y74500D01*
X11500Y70500D02*X14000D01*
X15200Y73700D02*X16000Y74500D01*
Y70500D01*
X15200D02*X16700D01*
X29991Y28150D02*X31291D01*
X29291Y28850D02*X29991Y28150D01*
X29291Y31450D02*Y28850D01*
Y31450D02*X29991Y32150D01*
X31291D01*
X32491D02*X34491D01*
X32491D02*Y30150D01*
X32991Y30650D01*
X33991D01*
X34491Y30150D01*
Y28650D01*
X33991Y28150D02*X34491Y28650D01*
X32991Y28150D02*X33991D01*
X32491Y28650D02*X32991Y28150D01*
X30109Y53150D02*X31409D01*
X29409Y53850D02*X30109Y53150D01*
X29409Y56450D02*Y53850D01*
Y56450D02*X30109Y57150D01*
X31409D01*
X32609Y54650D02*X34609Y57150D01*
X32609Y54650D02*X35109D01*
X34609Y57150D02*Y53150D01*
X87893Y27650D02*Y23650D01*
X89893D01*
X91093Y26850D02*X91893Y27650D01*
Y23650D01*
X91093D02*X92593D01*
X22510Y13000D02*X23810D01*
X21810Y13700D02*X22510Y13000D01*
X21810Y16300D02*Y13700D01*
Y16300D02*X22510Y17000D01*
X23810D01*
X25010Y16500D02*Y13500D01*
Y16500D02*X25510Y17000D01*
X26510D01*
X27010Y16500D01*
Y13500D01*
X26510Y13000D02*X27010Y13500D01*
X25510Y13000D02*X26510D01*
X25010Y13500D02*X25510Y13000D01*
X28210Y17000D02*Y13000D01*
Y17000D02*X30710Y13000D01*
Y17000D02*Y13000D01*
X31910Y17000D02*Y13000D01*
Y17000D02*X34410Y13000D01*
Y17000D02*Y13000D01*
X35610D02*X37610D01*
X39310Y17000D02*Y13000D01*
X38810Y17000D02*X40810D01*
X41310Y16500D01*
Y15500D01*
X40810Y15000D02*X41310Y15500D01*
X39310Y15000D02*X40810D01*
X42510Y17000D02*Y15000D01*
X43010Y13000D01*
X44010Y15000D01*
X45010Y13000D01*
X45510Y15000D01*
Y17000D02*Y15000D01*
X46710Y17000D02*X48710D01*
X49210Y16500D01*
Y15500D01*
X48710Y15000D02*X49210Y15500D01*
X47210Y15000D02*X48710D01*
X47210Y17000D02*Y13000D01*
X48010Y15000D02*X49210Y13000D01*
X63455Y6150D02*X64755D01*
X62755Y6850D02*X63455Y6150D01*
X62755Y9450D02*Y6850D01*
Y9450D02*X63455Y10150D01*
X64755D01*
X65955Y9650D02*X66455Y10150D01*
X67955D01*
X68455Y9650D01*
Y8650D01*
X65955Y6150D02*X68455Y8650D01*
X65955Y6150D02*X68455D01*
X46500Y5146D02*Y1146D01*
X47800Y5146D02*X48500Y4446D01*
Y1846D01*
X47800Y1146D02*X48500Y1846D01*
X46000Y1146D02*X47800D01*
X46000Y5146D02*X47800D01*
X49700Y4346D02*X50500Y5146D01*
Y1146D01*
X49700D02*X51200D01*
X107750Y24500D02*Y21000D01*
X108250Y20500D01*
X109250D01*
X109750Y21000D01*
Y24500D02*Y21000D01*
X110950Y24000D02*X111450Y24500D01*
X112950D01*
X113450Y24000D01*
Y23000D01*
X110950Y20500D02*X113450Y23000D01*
X110950Y20500D02*X113450D01*
X45700Y100500D02*X47000D01*
X45000Y101200D02*X45700Y100500D01*
X45000Y103800D02*Y101200D01*
Y103800D02*X45700Y104500D01*
X47000D01*
X48200Y104000D02*Y101000D01*
Y104000D02*X48700Y104500D01*
X49700D01*
X50200Y104000D01*
Y101000D01*
X49700Y100500D02*X50200Y101000D01*
X48700Y100500D02*X49700D01*
X48200Y101000D02*X48700Y100500D01*
X51400Y104500D02*Y100500D01*
Y104500D02*X53900Y100500D01*
Y104500D02*Y100500D01*
X55100Y104500D02*Y100500D01*
Y104500D02*X57600Y100500D01*
Y104500D02*Y100500D01*
X58800Y104000D02*X59300Y104500D01*
X60300D01*
X60800Y104000D01*
X60300Y100500D02*X60800Y101000D01*
X59300Y100500D02*X60300D01*
X58800Y101000D02*X59300Y100500D01*
Y102700D02*X60300D01*
X60800Y104000D02*Y103200D01*
Y102200D02*Y101000D01*
Y102200D02*X60300Y102700D01*
X60800Y103200D02*X60300Y102700D01*
X89393Y92150D02*X91393D01*
X91893Y91650D01*
Y90650D01*
X91393Y90150D02*X91893Y90650D01*
X89893Y90150D02*X91393D01*
X89893Y92150D02*Y88150D01*
X90693Y90150D02*X91893Y88150D01*
X93093Y91650D02*X93593Y92150D01*
X95093D01*
X95593Y91650D01*
Y90650D01*
X93093Y88150D02*X95593Y90650D01*
X93093Y88150D02*X95593D01*
X99393Y82650D02*X101393D01*
X101893Y82150D01*
Y81150D01*
X101393Y80650D02*X101893Y81150D01*
X99893Y80650D02*X101393D01*
X99893Y82650D02*Y78650D01*
X100693Y80650D02*X101893Y78650D01*
X103093Y81850D02*X103893Y82650D01*
Y78650D01*
X103093D02*X104593D01*
X112093Y88150D02*X113393D01*
X111393Y88850D02*X112093Y88150D01*
X111393Y91450D02*Y88850D01*
Y91450D02*X112093Y92150D01*
X113393D01*
X114593Y91650D02*X115093Y92150D01*
X116093D01*
X116593Y91650D01*
X116093Y88150D02*X116593Y88650D01*
X115093Y88150D02*X116093D01*
X114593Y88650D02*X115093Y88150D01*
Y90350D02*X116093D01*
X116593Y91650D02*Y90850D01*
Y89850D02*Y88650D01*
Y89850D02*X116093Y90350D01*
X116593Y90850D02*X116093Y90350D01*
X112700Y45900D02*Y41900D01*
X114000Y45900D02*X114700Y45200D01*
Y42600D01*
X114000Y41900D02*X114700Y42600D01*
X112200Y41900D02*X114000D01*
X112200Y45900D02*X114000D01*
X115900Y45400D02*X116400Y45900D01*
X117900D01*
X118400Y45400D01*
Y44400D01*
X115900Y41900D02*X118400Y44400D01*
X115900Y41900D02*X118400D01*
X112600Y64300D02*Y61300D01*
Y64300D02*X113100Y64800D01*
X114100D01*
X114600Y64300D01*
Y61800D01*
X113600Y60800D02*X114600Y61800D01*
X113100Y60800D02*X113600D01*
X112600Y61300D02*X113100Y60800D01*
X113600Y62300D02*X114600Y60800D01*
X115800Y64000D02*X116600Y64800D01*
Y60800D01*
X115800D02*X117300D01*
X50500Y89000D02*X52500D01*
X53000Y88500D01*
Y87500D01*
X52500Y87000D02*X53000Y87500D01*
X51000Y87000D02*X52500D01*
X51000Y89000D02*Y85000D01*
X51800Y87000D02*X53000Y85000D01*
X54200Y87200D02*X55700D01*
X54200Y85000D02*X56200D01*
X54200Y89000D02*Y85000D01*
Y89000D02*X56200D01*
X59400D02*X59900Y88500D01*
X57900Y89000D02*X59400D01*
X57400Y88500D02*X57900Y89000D01*
X57400Y88500D02*Y87500D01*
X57900Y87000D01*
X59400D01*
X59900Y86500D01*
Y85500D01*
X59400Y85000D02*X59900Y85500D01*
X57900Y85000D02*X59400D01*
X57400Y85500D02*X57900Y85000D01*
X61100Y87200D02*X62600D01*
X61100Y85000D02*X63100D01*
X61100Y89000D02*Y85000D01*
Y89000D02*X63100D01*
X64300D02*X66300D01*
X65300D02*Y85000D01*
X57500Y49000D02*Y45500D01*
X58000Y45000D01*
X59000D01*
X59500Y45500D01*
Y49000D02*Y45500D01*
X60700Y48200D02*X61500Y49000D01*
Y45000D01*
X60700D02*X62200D01*
X88593Y53650D02*X89893D01*
X87893Y54350D02*X88593Y53650D01*
X87893Y56950D02*Y54350D01*
Y56950D02*X88593Y57650D01*
X89893D01*
X91093Y56850D02*X91893Y57650D01*
Y53650D01*
X91093D02*X92593D01*
M02*
