G04 start of page 2 for group 0 idx 0 *
G04 Title: (unknown), top *
G04 Creator: pcb 20110918 *
G04 CreationDate: Fri 07 Mar 2014 04:06:25 AM GMT UTC *
G04 For: julien *
G04 Format: Gerber/RS-274X *
G04 PCB-Dimensions: 120000 113000 *
G04 PCB-Coordinate-Origin: lower left *
%MOIN*%
%FSLAX25Y25*%
%LNTOP*%
%ADD91C,0.0430*%
%ADD90C,0.0380*%
%ADD89C,0.0900*%
%ADD88C,0.0140*%
%ADD87C,0.0300*%
%ADD86R,0.0295X0.0295*%
%ADD85R,0.0240X0.0240*%
%ADD84R,0.0157X0.0157*%
%ADD83R,0.0200X0.0200*%
%ADD82R,0.0290X0.0290*%
%ADD81R,0.0340X0.0340*%
%ADD80R,0.0512X0.0512*%
%ADD79R,0.0197X0.0197*%
%ADD78C,0.0650*%
%ADD77C,0.0600*%
%ADD76C,0.0001*%
%ADD75C,0.0100*%
%ADD74C,0.0250*%
G54D74*X25000Y8000D02*X15000Y18000D01*
Y23000D01*
X5000D01*
G54D75*Y33000D02*X6000D01*
X11000Y28000D01*
X17000D01*
X19000Y33000D02*X15000D01*
X20000Y25000D02*X17000Y28000D01*
X26000Y29000D02*X17000Y38000D01*
Y43000D02*X27000Y33000D01*
X17000Y38000D02*X13000D01*
X10000Y41000D01*
Y48000D01*
X5000Y53000D01*
X15000Y43000D02*X17000D01*
X32500Y50559D02*X20000Y63059D01*
X32500Y71000D02*Y66500D01*
X24000Y49000D02*X29000Y54000D01*
Y54059D01*
X32500Y66500D02*X33000Y66000D01*
X34721Y59279D02*X27000Y67000D01*
X32000Y40559D02*X31559Y41000D01*
X28000D01*
X38425Y42075D02*X44925D01*
X32834Y35775D02*X45775D01*
X28000Y41000D02*X24000Y45000D01*
X31559Y45441D02*X29559D01*
X28000Y47000D01*
X15000Y43000D02*Y41000D01*
X24000Y45000D02*Y49000D01*
X20000Y63059D02*Y65500D01*
X7500Y78000D01*
X27000Y67000D02*Y76000D01*
X35000Y8000D02*X45808D01*
X45000Y17000D02*X40000Y22000D01*
X35000D01*
X30000Y27000D01*
X44000Y14000D02*X39000Y19000D01*
X35000D01*
X29000Y25000D01*
X30000Y27000D02*X25000D01*
X19000Y33000D01*
X29000Y25000D02*X20000D01*
X34000Y26000D02*X31000Y29000D01*
X26000D01*
G54D74*X27500Y108000D02*X77500D01*
G54D75*X32500Y103000D02*X39000D01*
X43000Y99000D01*
Y96000D01*
X46000Y93000D01*
X54000D01*
X53000Y91000D02*X44000D01*
X37500Y97500D01*
Y98000D01*
X52650Y77350D02*X67874Y62126D01*
X58425Y62575D02*X56000Y65000D01*
X61575Y62425D02*X55000Y69000D01*
X64724Y62276D02*X54000Y73000D01*
X71000Y63000D02*X53000Y81000D01*
X54000Y93000D02*X73000Y74000D01*
Y71000D02*X53000Y91000D01*
X54000Y86000D02*X73000Y67000D01*
X61575Y61492D02*Y62425D01*
X56000Y65000D02*X52000D01*
X55000Y69000D02*X50000D01*
X50798Y74202D02*X52000Y73000D01*
X54000D02*X52000D01*
Y77000D02*X51650Y77350D01*
X64724Y61492D02*Y62276D01*
X54000Y86000D02*X48000D01*
X50425Y42075D02*X47276Y45224D01*
X38276D01*
X44925Y42075D02*X47000Y40000D01*
Y37000D01*
X45775Y35775D01*
X38276Y45224D02*X32941Y50559D01*
X32500D01*
X35059Y45441D02*X32500D01*
X38425Y42075D02*X35059Y45441D01*
X41221Y38925D02*X37075D01*
X35441Y40559D01*
X32500D01*
X32834Y35775D02*X32500Y35441D01*
G54D74*Y80500D02*Y71052D01*
G54D75*X39585Y80500D02*X40085Y81000D01*
X53000D01*
X48976Y59279D02*X34721D01*
X48000Y67000D02*X48976Y66024D01*
X47948Y71052D02*X50000Y69000D01*
X48976Y66024D02*Y59279D01*
X38798Y71052D02*X47948D01*
X38798Y74202D02*X50798D01*
X51650Y77350D02*X39585D01*
X7500Y78000D02*Y88000D01*
X10500Y91000D01*
X16000D01*
X11400Y86200D02*X16800D01*
X16000Y91000D02*X20500Y95500D01*
Y101000D01*
X27500Y108000D01*
X16800Y86200D02*X27000Y76000D01*
X27500Y98000D02*X32500Y103000D01*
X57000Y17000D02*X45000D01*
X58000Y14000D02*X44000D01*
X64000Y32000D02*X64725Y31275D01*
Y21721D01*
X71024D02*Y17024D01*
X68000Y29000D02*X67874Y28874D01*
Y21721D01*
X61575D02*Y24425D01*
X60000Y26000D01*
X34000D01*
X70000Y38000D02*X47000D01*
X71810Y8000D02*X73500Y9690D01*
X71024Y17024D02*X70000Y16000D01*
X73500Y9690D02*Y42075D01*
X78779Y29477D02*X80000Y28256D01*
Y26000D01*
X50425Y42075D02*X82575D01*
X52500Y8000D02*X61000D01*
X66000Y13000D01*
X70000Y16000D02*X60000D01*
X58000Y14000D01*
X58425Y21721D02*Y18425D01*
X57000Y17000D01*
X67874Y62126D02*Y59279D01*
X71000Y63000D02*Y59302D01*
X71023Y59279D01*
X89000Y50000D02*X85000Y46000D01*
X82874Y48374D02*X85500Y51000D01*
Y64000D01*
X78779Y48374D02*X82874D01*
X78779Y51524D02*X81524D01*
X83500Y53500D01*
X58425Y59279D02*Y62575D01*
G54D74*X107500Y33000D02*Y12500D01*
X112500D01*
X107500Y33000D02*X112500D01*
G54D75*X98000Y28500D02*X102500Y33000D01*
X90000Y30914D02*Y25000D01*
X102500Y12500D01*
X78779Y32626D02*X83126D01*
X88500Y38000D01*
X90000D01*
Y43414D01*
X85000Y46000D02*Y44500D01*
X102500Y33000D02*Y43700D01*
X108600Y49800D01*
X107500Y33000D02*Y41500D01*
X85000Y44500D02*X82575Y42075D01*
X90000Y30914D02*X86914D01*
X85000Y29000D01*
X92084Y77350D02*X94650D01*
X115000Y73000D02*Y80500D01*
X103000D02*Y77000D01*
X106000Y74000D01*
X111200Y73000D02*X110200Y74000D01*
X106000D01*
X94650Y77350D02*X97000Y75000D01*
X89000Y72500D02*X87298Y74202D01*
X85000D01*
Y77350D02*X84650Y77000D01*
X92084Y71052D02*Y77350D01*
X73000Y71000D02*X84948D01*
X73000Y74000D02*X85000D01*
X84650Y77000D02*X74000D01*
X78000Y80000D02*X78500Y80500D01*
X85000D01*
X97000Y46500D02*X93500Y43000D01*
X90000D01*
X93000Y57000D02*X90000Y54000D01*
Y50500D01*
Y50000D02*X89000D01*
X112500Y58000D02*Y65400D01*
X115000Y67900D01*
X85500Y64000D02*X89000Y67500D01*
Y72500D01*
X83500Y53500D02*Y69552D01*
X85000Y71052D01*
X92084Y70916D02*X92000Y70831D01*
Y66000D01*
X97000Y75000D02*Y46500D01*
X108000Y70500D02*X104500D01*
X115300Y67900D02*X113000Y70200D01*
X112000D01*
X111200Y71000D01*
Y73000D01*
X104500Y70500D02*X103000Y72000D01*
X108600Y49800D02*X103000Y55400D01*
Y65000D01*
X107500Y95500D02*X99586D01*
X114586D02*Y99000D01*
X113586Y100000D01*
X97000D01*
X92500Y91000D02*X103000Y80500D01*
X99000Y89000D02*X99500Y89500D01*
X97000Y100000D02*X92500Y104500D01*
Y105500D01*
X77500Y108000D02*X85000Y100500D01*
Y94000D01*
X93000Y86000D01*
X92500Y95500D02*Y91000D01*
X108000Y85000D02*Y80500D01*
Y90000D02*X107500Y90500D01*
Y95500D01*
X99500D02*X100000Y95000D01*
X99500Y89500D02*Y95500D01*
X88000Y85000D02*Y84584D01*
X92084Y80500D01*
G54D76*G36*
X24500Y101000D02*Y95000D01*
X30500D01*
Y101000D01*
X24500D01*
G37*
G54D77*X37500Y98000D03*
X47500D03*
X27500Y108000D03*
X37500D03*
X47500D03*
X57500D03*
X67500D03*
X77500D03*
X57500Y98000D03*
X67500D03*
X77500D03*
G54D76*G36*
X69500Y91000D02*Y85000D01*
X75500D01*
Y91000D01*
X69500D01*
G37*
G36*
X89250Y108750D02*Y102250D01*
X95750D01*
Y108750D01*
X89250D01*
G37*
G54D78*X102500Y105500D03*
X112500D03*
G54D77*X5000Y43000D03*
X15000D03*
X5000Y33000D03*
X15000D03*
G54D76*G36*
X2000Y66000D02*Y60000D01*
X8000D01*
Y66000D01*
X2000D01*
G37*
G54D77*X15000Y63000D03*
X5000Y53000D03*
X15000D03*
X5000Y23000D03*
X15000D03*
G54D76*G36*
X32000Y11000D02*Y5000D01*
X38000D01*
Y11000D01*
X32000D01*
G37*
G54D77*X25000Y8000D03*
G54D79*X91297Y71052D02*X92872D01*
X91297Y74202D02*X92872D01*
X91297Y77350D02*X92872D01*
X91297Y80500D02*X92872D01*
G54D80*X114586Y95893D02*Y95107D01*
G54D81*X108600Y50100D02*Y49500D01*
X112500Y58300D02*Y57700D01*
G54D82*X114700Y73000D02*X115300D01*
X107700Y70500D02*X108300D01*
X114700Y67900D02*X115300D01*
G54D80*X89607Y38000D02*X90393D01*
X89607Y30914D02*X90393D01*
X89607Y50500D02*X90393D01*
X89607Y43414D02*X90393D01*
G54D81*X116400Y50100D02*Y49500D01*
G54D83*X117500Y15750D02*Y9250D01*
Y36250D02*Y29750D01*
X102500Y15750D02*Y9250D01*
X107500Y15750D02*Y9250D01*
X112500Y15750D02*Y9250D01*
Y36250D02*Y29750D01*
X107500Y36250D02*Y29750D01*
X102500Y36250D02*Y29750D01*
G54D84*X76566Y29477D02*X80992D01*
X76566Y32626D02*X80992D01*
X76566Y35776D02*X80992D01*
X76566Y38925D02*X80992D01*
X76566Y42075D02*X80992D01*
X76566Y45225D02*X80992D01*
X76566Y48374D02*X80992D01*
X76566Y51524D02*X80992D01*
X71023Y61492D02*Y57066D01*
X67874Y61492D02*Y57066D01*
X64724Y61492D02*Y57066D01*
X61575Y61492D02*Y57066D01*
X58425Y61492D02*Y57066D01*
Y23934D02*Y19508D01*
X61575Y23934D02*Y19508D01*
X64725Y23934D02*Y19508D01*
X67874Y23934D02*Y19508D01*
X71024Y23934D02*Y19508D01*
G54D85*X52500Y8400D02*Y7600D01*
X45808Y8400D02*Y7600D01*
G54D80*X60000Y9181D02*Y6819D01*
X71810Y9181D02*Y6819D01*
X115000Y80893D02*Y80107D01*
X107914Y80893D02*Y80107D01*
X107500Y95893D02*Y95107D01*
X99586Y95893D02*Y95107D01*
X92500Y95893D02*Y95107D01*
G54D81*X7500Y78300D02*Y77700D01*
X15300Y78300D02*Y77700D01*
X11400Y86500D02*Y85900D01*
G54D79*X84212Y80500D02*X85787D01*
X84212Y77350D02*X85787D01*
X84212Y74202D02*X85787D01*
X84212Y71052D02*X85787D01*
X31712Y80500D02*X33288D01*
X38798D02*X40372D01*
X31712Y77350D02*X33288D01*
X31712Y74202D02*X33288D01*
X31712Y71052D02*X33288D01*
X38798D02*X40372D01*
X38798Y74202D02*X40372D01*
X38798Y77350D02*X40372D01*
G54D86*X32008Y40559D02*X32992D01*
X32008Y35441D02*X32992D01*
X32008Y45441D02*X32992D01*
X32008Y50559D02*X32992D01*
G54D84*X39008Y51523D02*X43434D01*
X39008Y48374D02*X43434D01*
X39008Y45224D02*X43434D01*
X39008Y42075D02*X43434D01*
X39008Y38925D02*X43434D01*
X39008Y35775D02*X43434D01*
X39008Y32626D02*X43434D01*
X55275Y61492D02*Y57066D01*
X52126Y61492D02*Y57066D01*
X48976Y61492D02*Y57066D01*
X39008Y29476D02*X43434D01*
X48977Y23934D02*Y19508D01*
X52126Y23934D02*Y19508D01*
X55276Y23934D02*Y19508D01*
G54D87*X28000Y47000D03*
Y41000D03*
X27000Y33000D03*
X33000Y66000D03*
X67874Y28874D03*
X80000Y26000D03*
X85000Y29000D03*
X98000Y28500D03*
X64000Y32000D03*
X66000Y13000D03*
X70000Y38000D03*
X107500Y41500D03*
X103000Y65000D03*
X93000Y57000D03*
X52000Y81000D03*
Y65000D03*
X48000Y67000D03*
X52000Y69000D03*
Y73000D03*
Y77000D03*
X108000Y85000D03*
Y90000D03*
X103000Y72000D03*
X92000Y66000D03*
X74000Y77000D03*
X78000Y80000D03*
X73000Y67000D03*
X93000Y86000D03*
X88000Y84584D03*
X99000Y89000D03*
X48000Y86000D03*
G54D88*G54D89*G54D88*G54D89*G54D88*G54D90*G54D91*G54D90*M02*
