G04 start of page 3 for group 1 idx 1 *
G04 Title: (unknown), bottom *
G04 Creator: pcb 20110918 *
G04 CreationDate: Fri 07 Mar 2014 04:06:25 AM GMT UTC *
G04 For: julien *
G04 Format: Gerber/RS-274X *
G04 PCB-Dimensions: 120000 113000 *
G04 PCB-Coordinate-Origin: lower left *
%MOIN*%
%FSLAX25Y25*%
%LNBOTTOM*%
%ADD101C,0.0430*%
%ADD100C,0.0380*%
%ADD99C,0.0900*%
%ADD98C,0.0140*%
%ADD97C,0.0300*%
%ADD96C,0.0650*%
%ADD95C,0.0600*%
%ADD94C,0.0001*%
%ADD93C,0.0250*%
%ADD92C,0.0100*%
G54D92*X86000Y19500D02*X89000D01*
X66000Y13000D02*X79500D01*
X86000Y19500D01*
X71000Y17000D02*X14000D01*
X10000Y21000D01*
X28000Y41000D02*X15000Y23000D01*
X10000Y21000D02*Y38000D01*
X5000Y43000D01*
X89000Y19500D02*X98000Y28500D01*
X107500Y41500D02*Y42500D01*
X93000Y57000D01*
X80000Y26000D02*X71000Y17000D01*
X85000Y29000D02*X70000Y38000D01*
X28000Y47000D02*Y50000D01*
X25000Y44000D02*X52000D01*
X64000Y32000D01*
X27000Y33000D02*X58000D01*
X62000Y29000D01*
X68000D01*
X28000Y50000D02*X15000Y63000D01*
Y53000D02*X16000D01*
X25000Y44000D01*
G54D93*X15500Y62500D02*X15000Y63000D01*
X5000D01*
G54D92*X33000Y66000D02*Y65000D01*
X36000Y62000D01*
X88000D01*
X92000Y66000D01*
X52000Y65000D02*X64000Y77000D01*
X48000Y67000D02*Y86000D01*
X52000Y69000D02*X64500Y81500D01*
X52000Y73000D02*X61000Y82000D01*
X52000Y77000D02*X57500Y82500D01*
X73000Y93500D02*X77500Y98000D01*
X74000Y77000D02*X72500Y78500D01*
Y88000D01*
X73000Y67000D02*X78000Y72000D01*
Y80000D01*
X72500Y84500D02*Y88000D01*
X64500Y89500D02*X68500Y93500D01*
X61000Y91500D02*X67500Y98000D01*
X61000Y82000D02*Y91500D01*
X57500Y82500D02*Y98000D01*
X68500Y93500D02*X73000D01*
X64000Y77000D02*X74000D01*
X64500Y89500D02*Y81500D01*
X52000Y81000D02*Y93500D01*
X47500Y98000D01*
X103000Y72000D02*Y105000D01*
Y65000D02*X108000Y70000D01*
Y85000D01*
X104000Y104000D02*X102500Y105500D01*
X103000Y105000D02*X102500Y105500D01*
X112500D02*X108000Y101000D01*
Y90000D01*
X92500Y105500D02*X93000Y105000D01*
X92500Y105500D02*X88000Y101000D01*
Y85000D01*
X93000Y86000D02*X96000Y89000D01*
X99000D01*
G54D94*G36*
X24500Y101000D02*Y95000D01*
X30500D01*
Y101000D01*
X24500D01*
G37*
G54D95*X37500Y98000D03*
X47500D03*
X27500Y108000D03*
X37500D03*
X47500D03*
X57500D03*
X67500D03*
X77500D03*
X57500Y98000D03*
X67500D03*
X77500D03*
G54D94*G36*
X69500Y91000D02*Y85000D01*
X75500D01*
Y91000D01*
X69500D01*
G37*
G36*
X89250Y108750D02*Y102250D01*
X95750D01*
Y108750D01*
X89250D01*
G37*
G54D96*X102500Y105500D03*
X112500D03*
G54D95*X5000Y43000D03*
X15000D03*
X5000Y33000D03*
X15000D03*
G54D94*G36*
X2000Y66000D02*Y60000D01*
X8000D01*
Y66000D01*
X2000D01*
G37*
G54D95*X15000Y63000D03*
X5000Y53000D03*
X15000D03*
X5000Y23000D03*
X15000D03*
G54D94*G36*
X32000Y11000D02*Y5000D01*
X38000D01*
Y11000D01*
X32000D01*
G37*
G54D95*X25000Y8000D03*
G54D97*X28000Y47000D03*
Y41000D03*
X27000Y33000D03*
X33000Y66000D03*
X67874Y28874D03*
X80000Y26000D03*
X85000Y29000D03*
X98000Y28500D03*
X64000Y32000D03*
X66000Y13000D03*
X70000Y38000D03*
X107500Y41500D03*
X103000Y65000D03*
X93000Y57000D03*
X52000Y81000D03*
Y65000D03*
X48000Y67000D03*
X52000Y69000D03*
Y73000D03*
Y77000D03*
X108000Y85000D03*
Y90000D03*
X103000Y72000D03*
X92000Y66000D03*
X74000Y77000D03*
X78000Y80000D03*
X73000Y67000D03*
X93000Y86000D03*
X88000Y84584D03*
X99000Y89000D03*
X48000Y86000D03*
G54D98*G54D99*G54D98*G54D99*G54D98*G54D100*G54D101*G54D100*M02*
